<svg width="29" height="28" viewBox="0 0 29 28" fill="none" xmlns="http://www.w3.org/2000/svg">
<path d="M25.9137 20.6379H9.63047L10.448 18.9727L24.0324 18.948C24.4918 18.948 24.8855 18.6199 24.9676 18.166L26.8488 7.63594C26.898 7.35977 26.8242 7.07539 26.6437 6.85938C26.5546 6.75306 26.4433 6.66743 26.3177 6.60841C26.1921 6.54939 26.0552 6.51839 25.9164 6.51758L8.63516 6.46016L8.4875 5.76563C8.39453 5.32266 7.99531 5 7.54141 5H3.3168C3.0608 5 2.81529 5.10169 2.63427 5.28271C2.45326 5.46373 2.35156 5.70924 2.35156 5.96523C2.35156 6.22123 2.45326 6.46674 2.63427 6.64776C2.81529 6.82877 3.0608 6.93047 3.3168 6.93047H6.75937L7.40469 9.99844L8.99336 17.6902L6.94805 21.0289C6.84183 21.1723 6.77785 21.3425 6.76336 21.5203C6.74886 21.6981 6.78442 21.8765 6.86602 22.0352C7.03008 22.3605 7.36094 22.5656 7.72734 22.5656H9.44453C9.07845 23.0519 8.88071 23.6441 8.88125 24.2527C8.88125 25.8004 10.1391 27.0582 11.6867 27.0582C13.2344 27.0582 14.4922 25.8004 14.4922 24.2527C14.4922 23.643 14.2898 23.0496 13.9289 22.5656H18.334C17.9679 23.0519 17.7702 23.6441 17.7707 24.2527C17.7707 25.8004 19.0285 27.0582 20.5762 27.0582C22.1238 27.0582 23.3816 25.8004 23.3816 24.2527C23.3816 23.643 23.1793 23.0496 22.8184 22.5656H25.9164C26.4469 22.5656 26.8816 22.1336 26.8816 21.6004C26.8801 21.3447 26.7774 21.0999 26.596 20.9196C26.4147 20.7393 26.1694 20.638 25.9137 20.6379ZM9.03711 8.36328L24.7816 8.41523L23.2395 17.0504L10.8719 17.0723L9.03711 8.36328ZM11.6867 25.1168C11.2109 25.1168 10.8227 24.7285 10.8227 24.2527C10.8227 23.777 11.2109 23.3887 11.6867 23.3887C12.1625 23.3887 12.5508 23.777 12.5508 24.2527C12.5508 24.4819 12.4597 24.7017 12.2977 24.8637C12.1357 25.0258 11.9159 25.1168 11.6867 25.1168ZM20.5762 25.1168C20.1004 25.1168 19.7121 24.7285 19.7121 24.2527C19.7121 23.777 20.1004 23.3887 20.5762 23.3887C21.052 23.3887 21.4402 23.777 21.4402 24.2527C21.4402 24.4819 21.3492 24.7017 21.1872 24.8637C21.0251 25.0258 20.8053 25.1168 20.5762 25.1168Z" fill="black"/>
</svg>
