<svg width="58" height="60" viewBox="0 0 58 60" fill="none" xmlns="http://www.w3.org/2000/svg">
<path d="M38.5079 22.4875C38.6781 22.3146 38.8139 22.1078 38.9074 21.8791C39.0008 21.6504 39.0501 21.4044 39.0523 21.1554C39.0544 20.9064 39.0095 20.6595 38.92 20.429C38.8305 20.1986 38.6984 19.9892 38.5312 19.813C38.364 19.6369 38.1652 19.4976 37.9464 19.4032C37.7275 19.3088 37.493 19.2612 37.2564 19.2633C37.0199 19.2653 36.7862 19.3169 36.5688 19.4151C36.3515 19.5133 36.1548 19.656 35.9904 19.835L28.8512 27.3475L21.7143 19.835C21.5512 19.6508 21.3546 19.503 21.1361 19.4005C20.9176 19.2981 20.6817 19.243 20.4426 19.2385C20.2034 19.2341 19.9658 19.2804 19.744 19.3747C19.5222 19.469 19.3207 19.6094 19.1516 19.7874C18.9825 19.9655 18.8491 20.1775 18.7595 20.411C18.6699 20.6445 18.6259 20.8945 18.6302 21.1463C18.6344 21.3981 18.6867 21.6463 18.7841 21.8763C18.8814 22.1063 19.0218 22.3133 19.1968 22.485L26.3289 30L19.1921 37.5125C18.8774 37.8679 18.7061 38.3381 18.7143 38.8238C18.7224 39.3096 18.9094 39.773 19.2357 40.1166C19.5621 40.4601 20.0024 40.6569 20.4638 40.6654C20.9253 40.674 21.3719 40.4937 21.7096 40.1625L28.8512 32.65L35.9881 40.165C36.3257 40.4962 36.7723 40.6765 37.2338 40.6679C37.6953 40.6594 38.1356 40.4626 38.4619 40.1191C38.7883 39.7755 38.9752 39.3121 38.9834 38.8263C38.9915 38.3406 38.8202 37.8704 38.5056 37.515L31.3734 30L38.5079 22.4875Z" fill="black"/>
</svg>
