<svg width="16" height="16" viewBox="0 0 16 16" fill="none" xmlns="http://www.w3.org/2000/svg">
<path fill-rule="evenodd" clip-rule="evenodd" d="M15.4918 2.6123C15.5808 2.52388 15.6514 2.4189 15.6997 2.30334C15.7479 2.18778 15.7727 2.06391 15.7728 1.9388C15.7729 1.81368 15.7482 1.68978 15.7001 1.57416C15.652 1.45854 15.5816 1.35347 15.4927 1.26495C15.4038 1.17643 15.2982 1.10619 15.1821 1.05824C15.0659 1.01029 14.9413 0.985572 14.8156 0.985495C14.6898 0.985418 14.5652 1.00998 14.449 1.05779C14.3327 1.1056 14.2271 1.17571 14.1381 1.26412L8.36186 7.00959L2.58728 1.26412C2.40754 1.08535 2.16377 0.984909 1.90958 0.984909C1.65539 0.984909 1.41162 1.08535 1.23188 1.26412C1.05215 1.4429 0.951172 1.68538 0.951172 1.93821C0.951172 2.19104 1.05215 2.43352 1.23188 2.6123L7.00813 8.3561L1.23188 14.0999C1.14289 14.1884 1.07229 14.2935 1.02413 14.4092C0.975962 14.5248 0.951172 14.6488 0.951172 14.774C0.951172 14.8992 0.975962 15.0231 1.02413 15.1388C1.07229 15.2545 1.14289 15.3596 1.23188 15.4481C1.41162 15.6269 1.65539 15.7273 1.90958 15.7273C2.03544 15.7273 2.16007 15.7026 2.27635 15.6547C2.39263 15.6068 2.49828 15.5366 2.58728 15.4481L8.36186 9.70262L14.1381 15.4481C14.3178 15.6266 14.5615 15.7269 14.8156 15.7267C15.0696 15.7266 15.3132 15.626 15.4927 15.4473C15.6722 15.2685 15.7729 15.0261 15.7728 14.7734C15.7726 14.5207 15.6716 14.2785 15.4918 14.0999L9.71559 8.3561L15.4918 2.6123Z" fill="black"/>
</svg>
