<svg width="368" height="48" viewBox="0 0 368 48" fill="none" xmlns="http://www.w3.org/2000/svg">
<rect x="0.351562" width="367" height="48" rx="24" fill="#FF7426"/>
<path d="M132.925 22.4102H130.592C130.549 22.1083 130.462 21.8402 130.331 21.6058C130.2 21.3679 130.031 21.1655 129.825 20.9986C129.619 20.8317 129.381 20.7038 129.111 20.6151C128.845 20.5263 128.555 20.4819 128.243 20.4819C127.678 20.4819 127.186 20.6222 126.767 20.9027C126.348 21.1797 126.023 21.5845 125.793 22.1172C125.562 22.6463 125.446 23.2891 125.446 24.0455C125.446 24.8232 125.562 25.4766 125.793 26.0057C126.027 26.5348 126.354 26.9343 126.773 27.2042C127.192 27.4741 127.676 27.609 128.227 27.609C128.536 27.609 128.822 27.5682 129.085 27.4865C129.351 27.4048 129.587 27.2859 129.793 27.1296C129.999 26.9698 130.169 26.7763 130.304 26.549C130.443 26.3217 130.539 26.0625 130.592 25.7713L132.925 25.782C132.865 26.2827 132.714 26.7656 132.472 27.2308C132.234 27.6925 131.913 28.1062 131.508 28.4719C131.107 28.8342 130.627 29.1218 130.07 29.3349C129.516 29.5444 128.889 29.6491 128.19 29.6491C127.217 29.6491 126.347 29.429 125.58 28.9886C124.816 28.5483 124.212 27.9109 123.768 27.0763C123.328 26.2418 123.108 25.2315 123.108 24.0455C123.108 22.8558 123.332 21.8438 123.779 21.0092C124.227 20.1747 124.834 19.5391 125.601 19.1023C126.368 18.6619 127.231 18.4418 128.19 18.4418C128.822 18.4418 129.408 18.5305 129.947 18.7081C130.491 18.8857 130.972 19.1449 131.391 19.4858C131.81 19.8232 132.151 20.2369 132.414 20.7269C132.68 21.217 132.85 21.7781 132.925 22.4102ZM138.233 29.6598C137.406 29.6598 136.69 29.484 136.086 29.1325C135.486 28.7773 135.023 28.2837 134.696 27.6516C134.369 27.016 134.206 26.2791 134.206 25.4411C134.206 24.5959 134.369 23.8572 134.696 23.2251C135.023 22.5895 135.486 22.0959 136.086 21.7443C136.69 21.3892 137.406 21.2116 138.233 21.2116C139.061 21.2116 139.774 21.3892 140.374 21.7443C140.978 22.0959 141.443 22.5895 141.77 23.2251C142.097 23.8572 142.26 24.5959 142.26 25.4411C142.26 26.2791 142.097 27.016 141.77 27.6516C141.443 28.2837 140.978 28.7773 140.374 29.1325C139.774 29.484 139.061 29.6598 138.233 29.6598ZM138.244 27.902C138.62 27.902 138.934 27.7955 139.187 27.5824C139.439 27.3658 139.629 27.071 139.757 26.6982C139.888 26.3253 139.954 25.9009 139.954 25.4251C139.954 24.9492 139.888 24.5249 139.757 24.152C139.629 23.7791 139.439 23.4844 139.187 23.2678C138.934 23.0511 138.62 22.9428 138.244 22.9428C137.864 22.9428 137.544 23.0511 137.285 23.2678C137.029 23.4844 136.836 23.7791 136.704 24.152C136.577 24.5249 136.513 24.9492 136.513 25.4251C136.513 25.9009 136.577 26.3253 136.704 26.6982C136.836 27.071 137.029 27.3658 137.285 27.5824C137.544 27.7955 137.864 27.902 138.244 27.902ZM146.005 24.7699V29.5H143.736V21.3182H145.898V22.7617H145.994C146.175 22.2859 146.479 21.9094 146.905 21.6325C147.331 21.3519 147.848 21.2116 148.455 21.2116C149.023 21.2116 149.519 21.3359 149.941 21.5845C150.364 21.8331 150.692 22.1882 150.927 22.6499C151.161 23.108 151.278 23.6548 151.278 24.2905V29.5H149.009V24.6953C149.013 24.1946 148.885 23.804 148.626 23.5234C148.366 23.2393 148.009 23.0973 147.555 23.0973C147.249 23.0973 146.98 23.163 146.745 23.2944C146.514 23.4258 146.333 23.6175 146.202 23.8697C146.074 24.1183 146.008 24.4183 146.005 24.7699ZM157.467 21.3182V23.0227H152.417V21.3182H157.467ZM153.573 29.5V20.7269C153.573 20.1339 153.688 19.642 153.919 19.2514C154.153 18.8608 154.473 18.5678 154.878 18.3725C155.283 18.1772 155.742 18.0795 156.257 18.0795C156.605 18.0795 156.923 18.1062 157.211 18.1594C157.502 18.2127 157.719 18.2607 157.861 18.3033L157.456 20.0078C157.367 19.9794 157.257 19.9528 157.126 19.9279C156.998 19.9031 156.866 19.8906 156.731 19.8906C156.398 19.8906 156.165 19.9688 156.034 20.125C155.902 20.2777 155.837 20.4925 155.837 20.7695V29.5H153.573ZM158.853 29.5V21.3182H161.122V29.5H158.853ZM159.993 20.2635C159.655 20.2635 159.366 20.1516 159.124 19.9279C158.887 19.7006 158.768 19.429 158.768 19.1129C158.768 18.8004 158.887 18.5323 159.124 18.3086C159.366 18.0813 159.655 17.9677 159.993 17.9677C160.33 17.9677 160.618 18.0813 160.856 18.3086C161.097 18.5323 161.218 18.8004 161.218 19.1129C161.218 19.429 161.097 19.7006 160.856 19.9279C160.618 20.1516 160.33 20.2635 159.993 20.2635ZM162.94 29.5V21.3182H165.14V22.7457H165.225C165.374 22.2379 165.624 21.8544 165.976 21.5952C166.328 21.3324 166.732 21.201 167.19 21.201C167.304 21.201 167.427 21.2081 167.558 21.2223C167.689 21.2365 167.805 21.256 167.904 21.2809V23.2944C167.798 23.2624 167.65 23.234 167.462 23.2092C167.274 23.1843 167.102 23.1719 166.945 23.1719C166.612 23.1719 166.313 23.2447 166.051 23.3903C165.791 23.5323 165.585 23.7312 165.433 23.9869C165.283 24.2425 165.209 24.5373 165.209 24.8711V29.5H162.94ZM169.077 29.5V21.3182H171.24V22.7617H171.336C171.506 22.2823 171.79 21.9041 172.188 21.6271C172.586 21.3501 173.062 21.2116 173.616 21.2116C174.177 21.2116 174.654 21.3519 175.049 21.6325C175.443 21.9094 175.706 22.2859 175.837 22.7617H175.922C176.089 22.293 176.391 21.9183 176.828 21.6378C177.268 21.3537 177.788 21.2116 178.388 21.2116C179.152 21.2116 179.772 21.4549 180.248 21.9414C180.727 22.4244 180.967 23.1097 180.967 23.9975V29.5H178.703V24.445C178.703 23.9904 178.582 23.6495 178.341 23.4222C178.099 23.195 177.797 23.0813 177.435 23.0813C177.023 23.0813 176.702 23.2127 176.471 23.4755C176.24 23.7347 176.125 24.0774 176.125 24.5036V29.5H173.925V24.397C173.925 23.9957 173.809 23.6761 173.578 23.4382C173.351 23.2003 173.051 23.0813 172.678 23.0813C172.426 23.0813 172.199 23.1452 171.996 23.2731C171.798 23.3974 171.64 23.5732 171.522 23.8004C171.405 24.0241 171.347 24.2869 171.347 24.5888V29.5H169.077ZM186.273 29.5V18.5909H190.641C191.444 18.5909 192.113 18.7099 192.649 18.9478C193.186 19.1857 193.589 19.516 193.859 19.9386C194.128 20.3576 194.263 20.8406 194.263 21.3874C194.263 21.8136 194.178 22.1882 194.008 22.5114C193.837 22.831 193.603 23.0937 193.305 23.2997C193.01 23.5021 192.672 23.646 192.293 23.7312V23.8377C192.708 23.8555 193.097 23.9727 193.459 24.1893C193.825 24.4059 194.121 24.7095 194.349 25.1001C194.576 25.4872 194.69 25.9489 194.69 26.4851C194.69 27.0639 194.546 27.5806 194.258 28.0352C193.974 28.4862 193.553 28.843 192.996 29.1058C192.438 29.3686 191.751 29.5 190.934 29.5H186.273ZM188.58 27.6143H190.46C191.103 27.6143 191.572 27.4918 191.866 27.2468C192.161 26.9982 192.309 26.668 192.309 26.256C192.309 25.9542 192.236 25.6879 192.09 25.457C191.945 25.2262 191.737 25.0451 191.467 24.9137C191.201 24.7823 190.883 24.7166 190.513 24.7166H188.58V27.6143ZM188.58 23.1559H190.29C190.606 23.1559 190.886 23.1009 191.131 22.9908C191.38 22.8771 191.575 22.7173 191.717 22.5114C191.863 22.3054 191.936 22.0586 191.936 21.771C191.936 21.3768 191.795 21.0589 191.515 20.8175C191.238 20.576 190.844 20.4553 190.332 20.4553H188.58V23.1559ZM199.844 29.6598C199.017 29.6598 198.301 29.484 197.698 29.1325C197.098 28.7773 196.634 28.2837 196.308 27.6516C195.981 27.016 195.817 26.2791 195.817 25.4411C195.817 24.5959 195.981 23.8572 196.308 23.2251C196.634 22.5895 197.098 22.0959 197.698 21.7443C198.301 21.3892 199.017 21.2116 199.844 21.2116C200.672 21.2116 201.386 21.3892 201.986 21.7443C202.589 22.0959 203.055 22.5895 203.381 23.2251C203.708 23.8572 203.871 24.5959 203.871 25.4411C203.871 26.2791 203.708 27.016 203.381 27.6516C203.055 28.2837 202.589 28.7773 201.986 29.1325C201.386 29.484 200.672 29.6598 199.844 29.6598ZM199.855 27.902C200.232 27.902 200.546 27.7955 200.798 27.5824C201.05 27.3658 201.24 27.071 201.368 26.6982C201.499 26.3253 201.565 25.9009 201.565 25.4251C201.565 24.9492 201.499 24.5249 201.368 24.152C201.24 23.7791 201.05 23.4844 200.798 23.2678C200.546 23.0511 200.232 22.9428 199.855 22.9428C199.475 22.9428 199.156 23.0511 198.896 23.2678C198.641 23.4844 198.447 23.7791 198.316 24.152C198.188 24.5249 198.124 24.9492 198.124 25.4251C198.124 25.9009 198.188 26.3253 198.316 26.6982C198.447 27.071 198.641 27.3658 198.896 27.5824C199.156 27.7955 199.475 27.902 199.855 27.902ZM209.044 29.6598C208.216 29.6598 207.501 29.484 206.897 29.1325C206.297 28.7773 205.833 28.2837 205.507 27.6516C205.18 27.016 205.017 26.2791 205.017 25.4411C205.017 24.5959 205.18 23.8572 205.507 23.2251C205.833 22.5895 206.297 22.0959 206.897 21.7443C207.501 21.3892 208.216 21.2116 209.044 21.2116C209.871 21.2116 210.585 21.3892 211.185 21.7443C211.789 22.0959 212.254 22.5895 212.581 23.2251C212.907 23.8572 213.071 24.5959 213.071 25.4411C213.071 26.2791 212.907 27.016 212.581 27.6516C212.254 28.2837 211.789 28.7773 211.185 29.1325C210.585 29.484 209.871 29.6598 209.044 29.6598ZM209.054 27.902C209.431 27.902 209.745 27.7955 209.997 27.5824C210.249 27.3658 210.439 27.071 210.567 26.6982C210.699 26.3253 210.764 25.9009 210.764 25.4251C210.764 24.9492 210.699 24.5249 210.567 24.152C210.439 23.7791 210.249 23.4844 209.997 23.2678C209.745 23.0511 209.431 22.9428 209.054 22.9428C208.674 22.9428 208.355 23.0511 208.096 23.2678C207.84 23.4844 207.646 23.7791 207.515 24.152C207.387 24.5249 207.323 24.9492 207.323 25.4251C207.323 25.9009 207.387 26.3253 207.515 26.6982C207.646 27.071 207.84 27.3658 208.096 27.5824C208.355 27.7955 208.674 27.902 209.054 27.902ZM216.602 27.1456L216.608 24.4237H216.938L219.559 21.3182H222.163L218.642 25.4304H218.104L216.602 27.1456ZM214.546 29.5V18.5909H216.815V29.5H214.546ZM219.66 29.5L217.252 25.9364L218.765 24.3331L222.318 29.5H219.66ZM223.277 29.5V21.3182H225.546V29.5H223.277ZM224.417 20.2635C224.079 20.2635 223.79 20.1516 223.548 19.9279C223.31 19.7006 223.191 19.429 223.191 19.1129C223.191 18.8004 223.31 18.5323 223.548 18.3086C223.79 18.0813 224.079 17.9677 224.417 17.9677C224.754 17.9677 225.042 18.0813 225.279 18.3086C225.521 18.5323 225.642 18.8004 225.642 19.1129C225.642 19.429 225.521 19.7006 225.279 19.9279C225.042 20.1516 224.754 20.2635 224.417 20.2635ZM229.633 24.7699V29.5H227.364V21.3182H229.526V22.7617H229.622C229.803 22.2859 230.107 21.9094 230.533 21.6325C230.959 21.3519 231.476 21.2116 232.083 21.2116C232.651 21.2116 233.147 21.3359 233.569 21.5845C233.992 21.8331 234.32 22.1882 234.555 22.6499C234.789 23.108 234.906 23.6548 234.906 24.2905V29.5H232.637V24.6953C232.641 24.1946 232.513 23.804 232.253 23.5234C231.994 23.2393 231.637 23.0973 231.183 23.0973C230.877 23.0973 230.608 23.163 230.373 23.2944C230.142 23.4258 229.961 23.6175 229.83 23.8697C229.702 24.1183 229.636 24.4183 229.633 24.7699ZM240.381 32.7386C239.646 32.7386 239.015 32.6374 238.49 32.435C237.968 32.2362 237.552 31.9645 237.243 31.62C236.934 31.2756 236.734 30.8885 236.641 30.4588L238.74 30.1765C238.804 30.3398 238.905 30.4925 239.044 30.6346C239.182 30.7766 239.365 30.8903 239.592 30.9755C239.823 31.0643 240.104 31.1087 240.434 31.1087C240.928 31.1087 241.334 30.9879 241.654 30.7464C241.977 30.5085 242.138 30.109 242.138 29.5479V28.0511H242.043C241.943 28.2784 241.794 28.4933 241.595 28.6957C241.396 28.8981 241.141 29.0632 240.828 29.1911C240.516 29.3189 240.143 29.3828 239.71 29.3828C239.095 29.3828 238.536 29.2408 238.032 28.9567C237.531 28.669 237.131 28.2305 236.833 27.641C236.538 27.0479 236.391 26.2987 236.391 25.3931C236.391 24.4663 236.542 23.6921 236.844 23.0707C237.146 22.4492 237.547 21.984 238.048 21.6751C238.552 21.3661 239.104 21.2116 239.704 21.2116C240.162 21.2116 240.546 21.2898 240.855 21.446C241.164 21.5987 241.412 21.7905 241.6 22.0213C241.792 22.2486 241.94 22.4723 242.043 22.6925H242.128V21.3182H244.381V29.5799C244.381 30.2759 244.211 30.8583 243.87 31.3271C243.529 31.7958 243.056 32.1474 242.453 32.3817C241.853 32.6197 241.162 32.7386 240.381 32.7386ZM240.429 27.6783C240.794 27.6783 241.103 27.5877 241.355 27.4066C241.611 27.2219 241.806 26.9592 241.941 26.6183C242.08 26.2738 242.149 25.8619 242.149 25.3825C242.149 24.9031 242.082 24.4876 241.947 24.136C241.812 23.7809 241.616 23.5057 241.361 23.3104C241.105 23.1151 240.794 23.0174 240.429 23.0174C240.056 23.0174 239.741 23.1186 239.486 23.321C239.23 23.5199 239.037 23.7969 238.905 24.152C238.774 24.5071 238.708 24.9173 238.708 25.3825C238.708 25.8548 238.774 26.2631 238.905 26.6076C239.04 26.9485 239.234 27.2131 239.486 27.4013C239.741 27.5859 240.056 27.6783 240.429 27.6783Z" fill="white"/>
</svg>
